<svg width="2085" height="610" xmlns="http://www.w3.org/2000/svg" xmlns:xlink="http://www.w3.org/1999/xlink" xml:space="preserve" overflow="hidden"><defs><clipPath id="clip0"><rect x="990" y="875" width="2085" height="610"/></clipPath><clipPath id="clip1"><rect x="990" y="875" width="2085" height="610"/></clipPath><clipPath id="clip2"><rect x="990" y="1041" width="1210" height="305"/></clipPath><clipPath id="clip3"><rect x="990" y="1041" width="1210" height="305"/></clipPath><clipPath id="clip4"><rect x="990" y="1041" width="1210" height="305"/></clipPath></defs><g clip-path="url(#clip0)" transform="translate(-990 -875)"><g clip-path="url(#clip1)"><g><g><g><path d="M2840.22 926.109 2770.5 1045.77 2700.78 926.109 2469 926.109 2770.5 1444.31 3072 926.109C3072 926.109 2840.22 926.109 2840.22 926.109Z" fill="#42B883" fill-rule="nonzero" fill-opacity="1"/><path d="M2840.22 926.109 2770.5 1045.77 2700.78 926.109 2589.6 926.109 2770.5 1237.03 2951.4 926.109 2840.22 926.109Z" fill="#35495E" fill-rule="nonzero" fill-opacity="1"/></g></g></g><g clip-path="url(#clip2)"><g clip-path="url(#clip3)"><g clip-path="url(#clip4)"><path d="M570.213 302.5C573.479 302.5 576.263 299.792 576.263 296.45L576.263 155.787C576.263 155.787 583.825 169.4 597.438 192.087L656.425 293.425C659.124 299.082 665.112 302.5 670.037 302.5L710.875 302.5 710.875 75.625 670.037 75.625C667.318 75.625 663.987 77.8849 663.987 81.675L663.987 223.85 636.763 175.45 582.312 83.1875C579.663 78.4855 573.962 75.625 568.7 75.625L529.375 75.625 529.375 302.5 570.213 302.5Z" fill="#000000" fill-rule="nonzero" fill-opacity="1" transform="matrix(1 0 0 1.00165 990 1042)"/><path d="M1098.08 139.15 1117.74 139.15C1122.75 139.15 1126.81 135.087 1126.81 130.075L1126.81 90.75 1169.16 90.75 1169.16 139.15 1210 139.15 1210 175.45 1169.16 175.45 1169.16 240.488C1169.16 256.369 1176.81 263.175 1190.34 263.175L1210 263.175 1210 302.5 1184.29 302.5C1149.42 302.5 1126.81 279.92 1126.81 242L1126.81 175.45 1098.08 175.45 1098.08 139.15Z" fill="#000000" fill-rule="nonzero" fill-opacity="1" transform="matrix(1 0 0 1.00165 990 1042)"/><path d="M893.887 139.15 893.887 232.925C893.887 254.106 885.936 271.962 874.225 284.35 862.515 296.738 846.344 302.5 824.312 302.5 802.281 302.5 784.598 296.738 772.888 284.35 761.375 271.962 753.225 254.106 753.225 232.925L753.225 139.15 777.425 139.15C782.585 139.15 787.664 140.091 791.037 143.688 794.411 147.084 795.575 149.08 795.575 154.275L795.575 232.925C795.575 245.114 796.266 252.643 801.625 258.638 806.984 264.432 813.595 266.2 824.312 266.2 835.229 266.2 840.129 264.432 845.488 258.638 850.846 252.643 851.538 245.114 851.538 232.925L851.538 154.275C851.538 149.08 852.701 145.772 856.075 142.175 859.039 139.015 862.168 139.09 866.662 139.15 867.284 139.159 869.061 139.15 869.688 139.15L893.887 139.15Z" fill="#000000" fill-rule="nonzero" fill-opacity="1" transform="matrix(1 0 0 1.00165 990 1042)"/><path d="M1022.45 217.8 1073.88 139.15 1034.55 139.15C1029.6 139.15 1025.19 140.928 1022.45 145.2L998.25 181.5 975.562 146.713C972.821 142.441 966.903 139.15 961.95 139.15L924.138 139.15 975.562 216.287 919.6 302.5 958.925 302.5C963.841 302.5 968.274 297.641 971.025 293.425L998.25 252.587 1026.99 294.938C1029.74 299.154 1034.17 302.5 1039.09 302.5L1078.41 302.5 1022.45 217.8Z" fill="#000000" fill-rule="nonzero" fill-opacity="1" transform="matrix(1 0 0 1.00165 990 1042)"/><path d="M254.1 302.5 421.987 302.5C427.346 302.501 432.473 300.618 437.113 297.962 441.752 295.307 446.534 291.974 449.212 287.375 451.891 282.776 453.752 277.558 453.75 272.248 453.748 266.938 451.894 261.723 449.212 257.126L335.775 62.0125C333.098 57.4145 329.826 54.0798 325.188 51.425 320.549 48.7702 313.906 46.8875 308.55 46.8875 303.194 46.8875 298.064 48.7702 293.425 51.425 288.786 54.0798 285.515 57.4145 282.837 62.0125L254.1 111.925 196.625 15.1214C193.945 10.5238 190.677 5.67931 186.038 3.025 181.398 0.370694 176.27 0 170.913 0 165.555 0 160.427 0.370694 155.787 3.025 151.148 5.67931 146.367 10.5238 143.688 15.1214L3.025 257.126C0.343305 261.723 0.00233397 266.938 2.88876e-06 272.248-0.00232819 277.558 0.347343 282.775 3.025 287.374 5.70265 291.973 10.4853 295.307 15.125 297.962 19.7647 300.618 24.8923 302.501 30.25 302.5L136.125 302.5C178.077 302.5 208.612 283.681 229.9 248.05L281.325 158.812 308.55 111.925 391.737 254.1 281.325 254.1 254.1 302.5ZM134.613 254.1 60.5 254.1 170.913 63.525 226.875 158.812 189.806 223.434C175.668 246.553 159.55 254.1 134.613 254.1Z" fill="#00DC82" fill-rule="nonzero" fill-opacity="1" transform="matrix(1 0 0 1.00165 990 1042)"/></g></g></g></g></g></svg>